<svg version="1.1" id="Layer_1" xmlns="http://www.w3.org/2000/svg" xmlns:xlink="http://www.w3.org/1999/xlink" x="0px" y="0px"
	 width="100%" viewBox="0 0 1026 314" enable-background="new 0 0 1026 314" xml:space="preserve">
<path fill="#FFFFFF" opacity="1.000000" stroke="none" 
	d="
M736.000000,315.000000 
	C490.666718,315.000000 245.833420,315.000000 1.000098,315.000000 
	C1.000066,210.333389 1.000066,105.666794 1.000033,1.000141 
	C342.999878,1.000094 684.999756,1.000094 1026.999756,1.000047 
	C1026.999756,105.666527 1026.999756,210.333054 1026.999878,314.999786 
	C930.166687,315.000000 833.333313,315.000000 736.000000,315.000000 
M613.107361,158.495346 
	C613.059692,163.158646 613.143188,167.827988 612.928528,172.483597 
	C612.700989,177.417755 610.278015,180.509125 605.079224,181.156174 
	C603.925842,181.299713 602.876343,182.278625 601.779053,182.872894 
	C601.958008,183.225159 602.136963,183.577423 602.315918,183.929688 
	C611.144165,183.929688 619.972412,183.929688 628.800598,183.929688 
	C628.954956,183.551758 629.109253,183.173813 629.263550,182.795883 
	C628.368042,182.251328 627.498840,181.285858 626.572876,181.227859 
	C618.034424,180.693024 616.659790,176.898788 616.678711,168.846497 
	C616.728943,147.522598 616.689880,126.198486 616.708435,104.874474 
	C616.709717,103.387070 616.893005,101.899834 616.991638,100.412514 
	C617.349548,100.386932 617.707458,100.361359 618.065308,100.335777 
	C629.090942,128.630585 640.116577,156.925385 651.142212,185.220184 
	C651.807068,185.297653 652.471985,185.375122 653.136841,185.452576 
	C663.862976,156.796051 674.589050,128.139511 685.315186,99.482979 
	C686.304260,103.097282 686.311340,106.418633 686.303101,109.739944 
	C686.251099,130.728409 686.289917,151.717789 686.083679,172.704758 
	C686.022461,178.932846 684.589844,180.094360 678.574585,181.152786 
	C677.306702,181.375885 676.147705,182.217819 674.938599,182.774628 
	C675.080200,183.174332 675.221802,183.574051 675.363464,183.973755 
	C687.035461,183.973755 698.707520,183.973755 710.379517,183.973755 
	C709.922302,182.453339 709.028931,181.490967 707.974426,181.257919 
	C700.408325,179.585968 699.614258,179.244736 699.566833,171.548462 
	C699.416138,147.067749 699.662842,122.584816 699.659546,98.102760 
	C699.658813,92.945114 702.186279,90.530930 707.086914,89.934990 
	C708.341980,89.782372 709.522217,89.014305 710.736816,88.528992 
	C710.614868,88.055153 710.492859,87.581314 710.370850,87.107475 
	C703.617859,87.107475 696.862122,87.220505 690.113281,87.052856 
	C687.342590,86.984024 686.120972,87.906128 685.134827,90.597664 
	C677.934753,110.248772 670.512878,129.818649 663.148376,149.409439 
	C661.268188,154.411026 659.342651,159.395584 657.140991,165.166321 
	C656.093262,163.484741 655.539917,162.849289 655.259827,162.110291 
	C647.088501,140.553818 638.904785,119.001892 630.813232,97.415413 
	C626.960693,87.137665 627.043945,87.106552 616.101868,87.107193 
	C611.440369,87.107468 606.778931,87.107239 602.117432,87.107239 
	C601.801208,87.725601 601.485046,88.343956 601.168823,88.962318 
	C601.930725,89.231689 602.682190,89.536507 603.456116,89.765053 
	C612.997253,92.582535 613.091370,92.669281 613.101746,102.521164 
	C613.120972,120.846474 613.107422,139.171829 613.107361,158.495346 
M109.501785,136.880493 
	C118.755424,136.880493 128.009064,136.880493 137.297562,136.880493 
	C137.297562,149.845413 137.362640,161.981110 137.263031,174.115448 
	C137.227112,178.490982 134.668762,180.692078 130.366394,181.125336 
	C128.967407,181.266235 127.610657,181.826431 126.234589,182.194839 
	C126.308830,182.688385 126.383072,183.181931 126.457306,183.675476 
	C138.163498,183.675476 149.869690,183.675476 161.575882,183.675476 
	C160.768311,182.096436 159.502075,181.265915 158.160645,181.118210 
	C153.419281,180.596100 150.886993,178.195099 150.886292,173.339294 
	C150.882645,148.363388 150.805679,123.387077 150.935425,98.411850 
	C150.967102,92.317039 152.580872,90.929810 158.482010,89.884163 
	C159.694275,89.669365 160.810852,88.914429 161.971527,88.408447 
	C161.828873,87.988220 161.686218,87.567993 161.543564,87.147766 
	C149.869202,87.147766 138.194824,87.147766 126.520454,87.147766 
	C126.391457,87.579674 126.262451,88.011589 126.133453,88.443497 
	C127.536522,88.960289 128.907700,89.788734 130.348557,89.936157 
	C134.884140,90.400200 137.315109,92.636086 137.369339,97.295021 
	C137.425476,102.119415 137.576874,106.942978 137.604248,111.767372 
	C137.645447,119.025604 137.614990,126.284241 137.614990,133.607346 
	C122.355408,133.607346 107.812454,133.607346 93.441368,133.607346 
	C93.441368,121.263519 93.445351,109.297981 93.439468,97.332451 
	C93.436996,92.317017 96.316177,90.337593 100.936302,89.898438 
	C102.144669,89.783569 103.280602,88.906738 104.449806,88.379852 
	C104.305428,88.062164 104.161057,87.744476 104.016678,87.426788 
	C92.402367,87.426788 80.788048,87.426788 69.173729,87.426788 
	C69.064926,87.834808 68.956123,88.242836 68.847313,88.650856 
	C69.850647,89.078751 70.816391,89.695206 71.863411,89.903862 
	C78.549324,91.236290 79.962570,92.468575 79.994873,98.986023 
	C80.115356,123.299362 80.118546,147.613983 80.001663,171.927338 
	C79.969376,178.645630 78.488640,179.976349 72.085991,181.155807 
	C70.921165,181.370392 69.885750,182.287491 68.790596,182.880280 
	C68.966866,183.360535 69.143143,183.840790 69.319420,184.321045 
	C80.414383,184.321045 91.509674,184.353912 102.603477,184.240311 
	C103.277008,184.233414 103.938629,183.063278 105.264671,181.813309 
	C102.545418,181.392517 100.937752,181.168259 99.339218,180.891251 
	C96.045074,180.320404 93.630402,178.661545 93.604172,175.069550 
	C93.512291,162.485199 93.568550,149.899780 93.568550,136.880371 
	C98.579895,136.880371 103.541588,136.880371 109.501785,136.880493 
M521.868713,155.500183 
	C521.868713,149.406845 521.868713,143.313507 521.868713,137.190674 
	C537.012390,137.190674 551.418823,137.190674 566.086792,137.190674 
	C566.086792,149.952988 566.145935,162.397339 566.053223,174.840561 
	C566.022766,178.935471 563.201538,180.471237 559.577881,181.129120 
	C558.134583,181.391144 556.762512,182.045807 555.358032,182.521713 
	C555.496582,182.856125 555.635132,183.190521 555.773682,183.524933 
	C567.323914,183.524933 578.874084,183.524933 590.424255,183.524933 
	C590.491028,183.072540 590.557800,182.620163 590.624512,182.167770 
	C589.357300,181.814133 588.109436,181.275467 586.819336,181.140015 
	C582.118896,180.646484 579.654907,178.356766 579.665283,173.402191 
	C579.718445,148.113663 579.661804,122.824921 579.689270,97.536301 
	C579.694519,92.728806 582.241577,90.275436 587.045166,89.881493 
	C588.279968,89.780228 589.451477,88.908386 590.652100,88.390541 
	C590.514465,88.118500 590.376770,87.846451 590.239136,87.574402 
	C578.679199,87.574402 567.119324,87.574402 555.559387,87.574402 
	C556.274963,89.099564 557.161865,89.718964 558.134216,89.915123 
	C565.166077,91.333778 566.257935,92.583069 566.328064,99.903946 
	C566.382263,105.566322 566.339050,111.229622 566.339111,116.892517 
	C566.339172,122.471703 566.339172,128.050888 566.339172,133.704041 
	C551.152039,133.704041 536.743835,133.704041 522.049622,133.704041 
	C522.049622,121.302704 521.891724,109.183846 522.133484,97.072952 
	C522.220642,92.705994 524.890381,90.161255 529.534912,89.918800 
	C530.757446,89.854988 531.939270,89.013084 533.139832,88.528488 
	C533.008850,88.198509 532.877930,87.868523 532.747009,87.538544 
	C521.207214,87.538544 509.667389,87.538544 497.014832,87.538544 
	C498.479187,88.816582 498.959839,89.564583 499.600891,89.746086 
	C508.645782,92.307190 508.984772,92.691132 508.989441,101.808830 
	C509.000885,124.127281 508.998383,146.445755 508.983643,168.764206 
	C508.982452,170.592651 508.954590,172.433289 508.749908,174.246918 
	C508.278320,178.425507 506.152435,180.906021 501.681671,181.142044 
	C500.399811,181.209732 499.155579,181.991043 497.894104,182.445145 
	C498.008636,182.829117 498.123199,183.213104 498.237762,183.597076 
	C509.768158,183.597076 521.298584,183.597076 532.828979,183.597076 
	C532.922546,183.142502 533.016052,182.687912 533.109619,182.233337 
	C531.912109,181.856491 530.738281,181.353561 529.513123,181.124313 
	C523.769653,180.049500 522.253784,178.465408 522.036987,172.483932 
	C521.843994,167.160843 521.914429,161.828201 521.868713,155.500183 
M237.124115,184.019699 
	C239.570328,184.019699 242.016556,184.019699 244.012863,184.019699 
	C244.012863,175.706131 244.012863,167.585709 244.012863,159.465271 
	C244.012863,159.298630 244.073578,159.098358 244.002930,158.970886 
	C243.580246,158.208282 243.127350,157.462433 242.684586,156.710983 
	C242.035690,157.308167 241.012787,157.801407 240.812180,158.523193 
	C240.325806,160.273254 240.252884,162.134674 239.959457,163.942474 
	C238.029846,175.831650 232.512192,180.686661 220.501434,180.962433 
	C216.170776,181.061874 211.835678,181.011261 207.503082,180.974091 
	C199.246124,180.903259 197.567627,179.385910 197.436371,171.015625 
	C197.274384,160.685852 197.388824,150.351501 197.424179,140.019287 
	C197.427338,139.096313 197.726990,138.174347 197.869064,137.365082 
	C211.169144,135.794724 217.720154,136.909332 219.096405,151.887756 
	C219.111633,152.053528 219.047180,152.271271 219.130630,152.379028 
	C219.760849,153.193069 220.418793,153.985626 221.068085,154.784882 
	C221.608643,153.805679 222.618423,152.822128 222.609436,151.847992 
	C222.567947,147.360306 222.090561,142.876480 222.054550,138.388977 
	C222.001175,131.733032 222.241089,125.074921 222.211304,118.418381 
	C222.207245,117.512093 221.366928,116.609550 220.913818,115.705261 
	C220.229614,116.410736 219.400162,117.028755 218.906387,117.848885 
	C218.498642,118.526138 218.451706,119.435974 218.306580,120.253700 
	C216.147430,132.419113 210.066422,136.269608 197.715530,133.244781 
	C197.715530,121.111305 197.667130,108.967056 197.743164,96.823601 
	C197.768005,92.856819 200.066162,90.640076 203.952271,90.392433 
	C208.266693,90.117500 212.599289,90.044998 216.924332,90.034424 
	C232.190262,89.997078 234.920090,92.321419 237.618530,107.454483 
	C237.793808,108.437469 237.712738,109.592010 238.220718,110.353226 
	C238.696503,111.066185 239.796631,111.362488 241.423431,112.307884 
	C241.423431,103.233727 241.423431,95.174385 241.423431,87.081322 
	C218.784836,87.081322 196.075104,87.081322 173.365372,87.081322 
	C173.209473,87.548386 173.053558,88.015457 172.897644,88.482521 
	C174.215759,88.998817 175.496384,89.800705 176.858780,89.979538 
	C181.530426,90.592781 184.116425,92.937355 184.115219,97.815498 
	C184.109039,122.807526 184.068802,147.799728 184.157715,172.791443 
	C184.175781,177.873489 181.953369,180.510880 176.952621,181.114761 
	C175.576004,181.280975 174.268616,182.020523 172.929474,182.497009 
	C173.026413,183.004349 173.123352,183.511688 173.220306,184.019028 
	C194.212250,184.019028 215.204193,184.019028 237.124115,184.019699 
M914.500000,87.115356 
	C905.441956,87.115356 896.383911,87.115356 887.325867,87.115356 
	C887.187012,87.536980 887.048157,87.958611 886.909363,88.380234 
	C888.101257,88.922104 889.243896,89.726387 890.493469,89.961258 
	C896.515259,91.093109 897.941406,92.432396 898.085876,98.422455 
	C898.290710,106.912636 898.307495,115.408730 898.303894,123.902252 
	C898.296997,140.059647 898.335938,156.218597 898.113770,172.373581 
	C898.022827,178.983124 896.756775,180.031281 890.418640,181.155670 
	C889.200928,181.371689 888.070679,182.080353 886.900085,182.561768 
	C887.009460,182.995453 887.118896,183.429123 887.228271,183.862808 
	C910.960754,183.862808 934.693298,183.862808 958.007202,183.862808 
	C958.007202,174.623947 958.007202,165.743057 958.007202,156.862167 
	C957.447876,156.695724 956.888611,156.529282 956.329285,156.362839 
	C955.694336,157.666092 954.823486,158.908905 954.471130,160.284546 
	C953.607849,163.654312 953.788940,167.584702 952.063110,170.367416 
	C949.829712,173.968582 946.500000,178.775177 943.026672,179.351364 
	C934.302917,180.798553 925.227295,180.376862 916.307434,180.143356 
	C914.810791,180.104187 912.166565,177.289993 912.123535,175.701904 
	C911.778259,162.958923 911.930420,150.202454 911.930420,136.890030 
	C914.843445,136.890030 917.638245,136.829605 920.429626,136.902039 
	C927.193298,137.077515 930.449768,139.667709 932.075378,146.213898 
	C932.553284,148.138290 932.583374,150.187546 933.183594,152.062775 
	C933.547180,153.198578 934.611084,154.110184 935.360352,155.122528 
	C936.360779,142.224655 936.387024,129.972061 936.290466,117.720459 
	C936.285156,117.041710 935.262024,116.370979 934.712646,115.696526 
	C934.113770,116.307816 933.320923,116.824799 932.966064,117.554749 
	C932.542542,118.425980 932.450500,119.472458 932.289734,120.455269 
	C930.352478,132.303802 923.278076,136.654327 911.678772,133.090759 
	C911.678772,121.457008 911.757812,109.813446 911.642822,98.171791 
	C911.591492,92.976448 914.106506,90.290237 919.079712,90.213509 
	C925.724182,90.111015 932.377808,90.321625 939.021912,90.555382 
	C945.010498,90.766083 948.434937,94.361778 950.013855,99.788963 
	C950.936584,102.960320 951.284363,106.295227 952.059570,109.515953 
	C952.247314,110.296005 953.102478,110.915428 953.650757,111.608688 
	C954.225586,110.989525 955.290955,110.377853 955.300537,109.750069 
	C955.415955,102.182770 955.375244,94.613098 955.375244,87.115479 
	C942.104797,87.115479 928.802429,87.115479 914.500000,87.115356 
M832.544434,184.019974 
	C841.281738,184.019974 850.018982,184.019974 858.756287,184.019974 
	C858.913330,183.480957 859.070374,182.941940 859.227417,182.402939 
	C857.709290,181.963852 856.217773,181.336975 854.668518,181.118073 
	C847.798340,180.147293 846.128967,178.492081 845.507141,171.628952 
	C845.387268,170.305695 845.399902,168.967865 845.399597,167.636749 
	C845.393799,143.641663 845.389587,119.646576 845.407288,95.651512 
	C845.408630,93.899429 845.580139,92.147469 845.703918,89.800690 
	C850.337097,90.102150 854.448486,90.426117 858.565979,90.624962 
	C865.587158,90.964020 869.457581,95.123657 871.238403,101.407982 
	C872.273376,105.060318 872.511169,108.931908 873.351685,112.649651 
	C873.636902,113.911072 874.669861,115.003433 875.361084,116.173058 
	C875.917969,115.950562 876.474854,115.728058 877.031738,115.505562 
	C877.031738,106.104179 877.031738,96.702797 877.031738,87.037880 
	C851.593445,87.037880 826.026428,87.037880 800.754272,87.037880 
	C800.754272,96.676674 800.754272,106.171066 800.754272,115.665459 
	C801.253113,115.823250 801.751953,115.981041 802.250793,116.138832 
	C802.909119,114.993919 803.889893,113.920647 804.163269,112.690193 
	C804.883545,109.448601 805.114502,106.095993 805.873108,102.865738 
	C807.096436,97.656326 809.368408,92.757011 815.034912,91.490501 
	C820.444397,90.281433 826.097839,90.163551 832.313599,89.493858 
	C832.313599,92.321800 832.313538,94.101494 832.313538,95.881187 
	C832.313538,107.545464 832.338379,119.209801 832.307129,130.873993 
	C832.271912,144.035278 832.321838,157.199020 832.072266,170.356705 
	C831.919434,178.412109 829.941895,180.270844 822.126099,181.120636 
	C820.828613,181.261703 819.561218,181.679214 818.279846,181.968964 
	C818.313538,182.652649 818.347229,183.336319 818.380920,184.020004 
	C822.775452,184.020004 827.170044,184.020004 832.544434,184.019974 
M455.881256,163.458817 
	C455.881256,139.062149 455.881256,114.665466 455.881256,89.792854 
	C460.837341,90.073372 464.968475,90.270004 469.094055,90.548958 
	C476.226868,91.031242 480.237793,95.266403 481.946014,101.816521 
	C482.948456,105.660423 483.313263,109.667130 484.176483,113.553612 
	C484.364899,114.401947 485.454620,115.050102 486.129272,115.790451 
	C486.623993,115.089256 487.541229,114.392807 487.549164,113.686150 
	C487.647461,104.923431 487.613373,96.159225 487.613373,87.260345 
	C461.971649,87.260345 436.462372,87.260345 411.211365,87.260345 
	C411.211365,96.074127 411.152985,104.539246 411.293396,113.001060 
	C411.309021,113.941383 412.457001,114.862923 413.079803,115.793182 
	C413.636169,114.943649 414.502350,114.158470 414.694550,113.233284 
	C415.471008,109.495628 415.822601,105.661018 416.738831,101.963242 
	C417.950836,97.071686 420.457611,92.609009 425.638855,91.473038 
	C431.170532,90.260239 436.951630,90.185036 442.983826,89.576935 
	C442.983826,107.235016 443.014130,123.707947 442.972656,140.180695 
	C442.947113,150.335541 443.137421,160.506561 442.625427,170.639725 
	C442.199829,179.062103 440.809143,180.006058 432.474274,181.171066 
	C431.203094,181.348724 430.029785,182.226593 428.811188,182.780594 
	C429.018494,183.230911 429.225800,183.681213 429.433105,184.131531 
	C441.557404,184.131531 453.682068,184.173630 465.805481,184.071640 
	C467.135101,184.060455 468.457703,183.221741 469.783569,182.766830 
	C468.565063,182.219788 467.390442,181.351608 466.120880,181.178070 
	C458.187622,180.093719 456.137787,177.922943 455.900421,169.936295 
	C455.845978,168.105637 455.885071,166.272217 455.881256,163.458817 
M315.961761,177.162262 
	C312.788391,179.148712 309.615021,181.135178 305.409546,183.767700 
	C317.231354,183.767700 327.974670,183.767700 338.829865,183.767700 
	C338.829865,183.237106 338.960663,182.707474 338.793030,182.300858 
	C338.625641,181.894745 338.206665,181.391510 337.817169,181.308105 
	C332.661133,180.203705 330.770630,175.975632 329.150116,171.824524 
	C318.541382,144.648727 308.080872,117.415077 297.526337,90.218033 
	C296.927063,88.673820 295.925720,87.285652 294.573273,84.859215 
	C293.425079,87.104881 292.758789,88.172592 292.307831,89.324615 
	C281.721100,116.369583 271.322083,143.490341 260.410553,170.403351 
	C258.793945,174.390610 254.772644,177.400925 251.874313,180.871964 
	C251.180649,181.702682 250.528976,182.568497 249.422638,183.969482 
	C259.163330,183.969482 267.819122,183.969482 276.474915,183.969482 
	C276.614471,183.561981 276.754059,183.154465 276.893616,182.746964 
	C275.824280,182.198624 274.810699,181.376923 273.676727,181.145706 
	C265.463104,179.471069 263.174225,176.263626 265.486328,168.241318 
	C267.275299,162.034149 269.628143,155.973282 272.065948,149.983994 
	C272.513855,148.883591 274.556976,147.817093 275.885559,147.789658 
	C285.038452,147.600571 294.197723,147.641861 303.353149,147.755554 
	C304.497437,147.769760 306.370758,148.374100 306.656555,149.159668 
	C309.936188,158.174469 312.973785,167.277313 315.961761,177.162262 
M740.712463,132.048584 
	C736.919067,141.792953 733.214233,151.573059 729.304443,161.270477 
	C726.122986,169.161423 724.046326,177.856125 715.373779,182.130096 
	C715.182129,182.224548 715.349670,183.047775 715.349670,183.665314 
	C724.106689,183.665314 732.725403,183.665314 741.344055,183.665314 
	C740.791138,182.183441 740.004211,181.409805 739.084717,181.189545 
	C729.519409,178.898285 727.709534,175.887253 730.805420,166.370422 
	C732.549438,161.009064 734.547974,155.705139 736.872925,150.575272 
	C737.486084,149.222244 739.714722,147.832382 741.239990,147.788162 
	C750.226746,147.527588 759.227600,147.551147 768.216187,147.777405 
	C769.552368,147.811020 771.558655,149.136414 772.047791,150.350555 
	C775.081909,157.881119 777.904785,165.505066 780.525024,173.191025 
	C782.103943,177.822464 780.527954,180.021149 775.771240,180.988266 
	C774.260010,181.295532 772.820740,181.957367 771.348572,182.456955 
	C771.473755,182.807007 771.598999,183.157043 771.724182,183.507095 
	C782.399597,183.507095 793.074951,183.507095 805.268311,183.507095 
	C801.768433,181.083649 799.190308,179.900055 797.483826,177.952652 
	C795.671265,175.884125 794.394714,173.203873 793.383545,170.597031 
	C783.437439,144.955765 773.610107,119.268456 763.701721,93.612457 
	C762.690613,90.994278 761.371155,88.495178 760.194763,85.940819 
	C759.614929,85.975525 759.035034,86.010231 758.455200,86.044937 
	C752.638123,101.139542 746.821045,116.234146 740.712463,132.048584 
M349.186035,179.848801 
	C346.396332,180.694611 343.606659,181.540405 340.816986,182.386200 
	C340.972229,182.855942 341.127472,183.325668 341.282745,183.795410 
	C364.804688,183.795410 388.326630,183.795410 411.685242,183.795410 
	C411.685242,174.072189 411.685242,164.713242 411.685242,155.354309 
	C411.085999,155.204224 410.486755,155.054123 409.887512,154.904037 
	C409.266174,157.049088 408.362091,159.156296 408.069244,161.345291 
	C406.101715,176.052231 400.568756,180.984100 385.786987,180.987457 
	C382.956085,180.988098 380.125153,180.987793 377.294250,180.987503 
	C366.613159,180.986404 365.075653,179.605438 365.038269,169.045547 
	C364.958710,146.565079 365.006897,124.084106 365.027313,101.603371 
	C365.028687,100.112000 365.267456,98.622360 365.344086,97.129257 
	C365.580750,92.517509 368.108734,90.336830 372.599457,89.926735 
	C373.841064,89.813354 375.018890,89.001793 376.225983,88.510567 
	C376.095337,88.168892 375.964691,87.827225 375.834045,87.485550 
	C364.273376,87.485550 352.712738,87.485550 341.152069,87.485550 
	C341.055817,87.902763 340.959564,88.319977 340.863281,88.737190 
	C341.898132,89.138397 342.900726,89.717628 343.973022,89.911797 
	C350.727051,91.134750 351.968140,92.205589 351.997772,98.943176 
	C352.105377,123.419807 352.090485,147.897644 351.929230,172.373734 
	C351.913971,174.694336 350.551208,177.006073 349.186035,179.848801 
M375.527649,224.906845 
	C375.528381,231.227127 375.456299,237.549118 375.604645,243.865936 
	C375.628204,244.869064 376.643951,245.848907 377.200989,246.839508 
	C377.720123,245.808411 378.604523,244.805649 378.687134,243.740707 
	C378.900116,240.995163 378.758423,238.222107 378.758423,235.333435 
	C384.200226,235.333435 388.947357,235.333435 394.239258,235.333435 
	C394.239258,237.702271 394.106537,239.826538 394.280579,241.925385 
	C394.423798,243.652466 394.930847,245.349411 395.276642,247.059708 
	C395.825104,246.935287 396.373535,246.810867 396.921997,246.686447 
	C396.921997,238.140961 396.921997,229.595474 396.921997,221.049973 
	C396.274292,220.964920 395.626587,220.879852 394.978882,220.794800 
	C394.571442,224.481491 394.163971,228.168198 393.753815,231.879303 
	C388.701263,231.879303 383.975159,231.879303 378.751709,231.879303 
	C378.751709,228.900757 378.883270,226.266068 378.679993,223.657486 
	C378.609283,222.750214 377.710175,221.907501 377.189392,221.035294 
	C376.636627,222.028122 376.083862,223.020935 375.527649,224.906845 
M537.519592,246.360504 
	C545.372314,248.071976 550.849304,246.177765 554.032471,240.649521 
	C556.850891,235.754745 556.239380,229.497772 552.532654,225.337021 
	C548.526917,220.840515 543.396179,220.017883 537.957581,221.477814 
	C532.680908,222.894257 529.588135,226.589035 528.900269,232.137604 
	C528.081970,238.737823 530.860474,243.299805 537.519592,246.360504 
M500.455994,239.592957 
	C500.455658,238.760635 500.478577,237.927551 500.451324,237.096115 
	C500.167511,228.446030 495.761017,225.483551 487.646240,228.451492 
	C487.113068,228.646500 486.491882,228.600937 485.649536,228.697250 
	C485.491089,225.356918 485.348511,222.351013 485.182983,218.861572 
	C481.863770,221.251648 481.596497,223.887726 482.301117,242.902313 
	C482.353271,244.309631 483.119568,245.690491 483.553864,247.083664 
	C484.087982,246.967789 484.622131,246.851898 485.156281,246.736023 
	C485.353271,242.843674 485.386810,238.934097 485.794861,235.063995 
	C486.175751,231.451660 488.738312,230.023682 492.103485,230.000244 
	C495.593323,229.975922 497.176147,232.082565 497.402008,235.342667 
	C497.539734,237.330856 497.432312,239.335800 497.563782,241.324722 
	C497.689087,243.219833 497.981476,245.103912 498.200409,246.992844 
	C498.814667,246.964981 499.428925,246.937119 500.043213,246.909241 
	C500.180450,244.768906 500.317719,242.628571 500.455994,239.592957 
M626.376465,238.932785 
	C628.020142,238.735428 629.680847,238.628754 631.304260,238.323441 
	C635.842590,237.469971 638.234070,234.511841 638.506897,230.070587 
	C638.770142,225.787186 635.762207,222.013535 631.121704,221.417130 
	C626.952881,220.881348 622.660950,221.304230 618.475769,221.304230 
	C617.075500,233.771759 617.774353,244.734756 620.698853,247.314743 
	C620.921448,244.327728 621.106567,241.843277 621.308411,239.135345 
	C622.886902,239.058746 624.180664,238.995972 626.376465,238.932785 
M406.126099,231.977112 
	C403.829926,238.985947 405.812225,244.488129 411.345337,246.463913 
	C416.072479,248.151901 420.358978,246.682816 421.710449,242.911530 
	C412.244141,245.342087 409.408905,244.375626 408.340607,237.917068 
	C413.486847,237.917068 418.562744,237.917068 423.767456,237.917068 
	C424.030090,233.212448 422.442657,230.046906 418.496918,228.272476 
	C413.735565,226.131226 409.806915,227.469009 406.126099,231.977112 
M313.094879,234.478806 
	C310.411346,228.286545 305.607849,225.833939 300.089050,227.838135 
	C295.384979,229.546494 292.675201,235.035126 294.041443,240.087631 
	C295.305481,244.762207 300.768951,247.919968 305.872467,246.925674 
	C311.085480,245.910019 313.830444,241.560028 313.094879,234.478806 
M688.923157,243.286179 
	C692.449707,237.151703 691.178284,230.967316 685.858215,228.378357 
	C681.211121,226.116913 675.520813,227.396347 672.997681,231.270020 
	C669.941101,235.962738 670.538635,241.163116 674.546692,244.751038 
	C678.315247,248.124557 683.669312,247.779785 688.923157,243.286179 
M744.050171,239.550995 
	C744.844788,241.379593 745.812561,243.154572 746.398987,245.047653 
	C747.726990,249.334213 745.140381,252.007156 740.650146,251.185760 
	C739.966553,251.060699 739.240295,251.168335 738.162598,251.168335 
	C741.361816,255.303940 745.523560,255.460068 747.896179,251.107910 
	C751.965332,243.643784 755.195068,235.722000 758.777283,227.992371 
	C758.306030,227.721985 757.834778,227.451584 757.363525,227.181198 
	C752.700562,230.941223 752.819885,237.946182 748.763733,242.303879 
	C745.148682,237.464783 744.935791,230.918564 740.449524,227.159302 
	C739.978210,227.441422 739.506958,227.723526 739.035645,228.005646 
	C740.606262,231.620987 742.176880,235.236328 744.050171,239.550995 
M439.897736,230.326065 
	C440.803162,231.898285 441.708557,233.470520 442.973541,235.667114 
	C439.030579,235.872589 435.997467,235.415863 433.494507,236.361816 
	C431.600159,237.077759 429.417877,239.452744 429.162201,241.333817 
	C428.949677,242.897675 431.034088,245.292587 432.706451,246.426193 
	C433.996399,247.300583 436.230408,246.925613 438.035645,246.859558 
	C440.200195,246.780350 442.355164,246.439240 444.962036,246.164352 
	C444.962036,242.247299 445.142059,237.938446 444.906738,233.652420 
	C444.708069,230.033752 442.408936,227.852295 438.869629,227.454224 
	C435.411255,227.065247 432.128418,227.661423 430.064392,231.041092 
	C433.079010,230.718002 436.093658,230.394913 439.897736,230.326065 
M580.775635,243.924179 
	C580.780151,228.950699 580.780151,228.950699 578.327148,227.374786 
	C577.995178,231.448547 577.730591,235.371567 577.341736,239.282242 
	C576.935547,243.366653 574.073303,244.348404 570.595581,244.240067 
	C566.862915,244.123749 565.999084,241.441544 565.851501,238.400238 
	C565.714417,235.575104 565.899231,232.732208 565.707825,229.913055 
	C565.643799,228.970734 564.856079,228.077560 564.399109,227.161926 
	C563.951538,227.292252 563.503906,227.422592 563.056274,227.552933 
	C563.056274,231.992950 562.764465,236.458435 563.149170,240.864868 
	C563.453430,244.349350 565.831482,246.680756 569.425476,246.865326 
	C572.987427,247.048264 576.579773,246.717667 580.150330,246.483521 
	C580.392395,246.467621 580.563416,245.369827 580.775635,243.924179 
M338.070251,238.438354 
	C338.070251,234.776215 338.070251,231.114090 338.070251,227.451950 
	C337.275238,227.419098 336.480225,227.386246 335.685211,227.353394 
	C335.535248,230.346359 335.366882,233.338531 335.239166,236.332428 
	C334.997894,241.989334 332.977020,244.459946 328.586914,244.208679 
	C323.510590,243.918137 323.172821,240.159912 323.085510,236.346512 
	C323.017303,233.367920 323.071869,230.386536 323.071869,227.406387 
	C322.238525,227.418076 321.405182,227.429764 320.571838,227.441437 
	C320.485229,231.432816 320.094788,235.446350 320.383881,239.410339 
	C320.808838,245.237747 325.732361,248.271729 331.421783,246.767166 
	C333.302277,246.269867 335.306091,246.238861 338.070312,245.892197 
	C338.070312,244.225555 338.070312,241.808624 338.070251,238.438354 
M275.678070,231.991730 
	C277.422882,236.938644 279.167664,241.885544 280.912476,246.832458 
	C279.847107,236.306091 288.779633,229.946030 291.876190,221.318817 
	C291.356598,221.018021 290.837006,220.717209 290.317413,220.416412 
	C287.254517,225.060272 284.191620,229.704132 281.113586,234.370941 
	C276.172913,230.630447 276.079437,223.170151 269.327484,221.596222 
	C271.291290,224.866058 273.255127,228.135895 275.678070,231.991730 
M726.225708,232.835953 
	C726.330383,236.143829 725.991211,239.554306 726.722412,242.717331 
	C727.101807,244.358261 729.155762,246.141724 730.859436,246.785294 
	C732.317383,247.336014 734.354492,246.353394 736.135437,246.048950 
	C728.869141,243.706589 727.987732,241.497864 730.093445,230.543274 
	C731.768555,230.040848 733.427979,229.543137 735.087402,229.045425 
	C733.247559,227.436798 730.373840,227.230667 729.993042,226.147797 
	C727.866089,220.100021 727.087952,222.801788 725.785461,226.443695 
	C725.465210,227.339172 723.885498,227.784180 722.865356,228.448975 
	C724.163208,229.806183 725.183716,230.873337 726.225708,232.835953 
M467.838074,245.634125 
	C472.380981,247.719116 472.597809,247.700882 475.307739,245.005829 
	C468.309540,243.398712 467.527191,241.420013 469.511505,230.490341 
	C471.373749,229.988220 473.175323,229.502457 474.976929,229.016693 
	C474.905884,228.595108 474.834839,228.173523 474.763794,227.751938 
	C473.065704,227.457611 471.367615,227.163269 469.657593,226.865509 
	C469.039062,225.566650 468.420532,224.267776 467.726318,222.810043 
	C465.808258,225.214417 464.328735,227.069077 463.773560,227.765015 
	C464.702454,230.847031 465.561890,233.021866 465.989258,235.278534 
	C466.596893,238.487396 466.886871,241.756409 467.838074,245.634125 
M589.587036,233.786255 
	C589.643005,238.171936 589.698975,242.557617 589.754944,246.943298 
	C590.396362,246.974182 591.037781,247.005051 591.679138,247.035934 
	C594.177368,240.897980 588.581787,230.977905 600.460449,229.223328 
	C600.186035,228.854019 599.911621,228.484726 599.637146,228.115417 
	C596.600647,228.115417 593.564087,228.115417 589.840027,228.115417 
	C589.773804,229.370270 589.680908,231.129745 589.587036,233.786255 
M700.914795,244.081360 
	C701.043213,240.769028 700.359863,237.121613 701.546814,234.246231 
	C702.568359,231.771439 705.722961,230.177155 707.926514,228.200638 
	C704.520630,228.200638 701.426636,228.200638 698.251160,228.200638 
	C698.251160,234.116364 698.251160,240.363297 698.251160,248.064224 
	C699.694153,246.365509 700.291809,245.661896 700.914795,244.081360 
M347.052246,243.135727 
	C347.284912,244.395081 347.517578,245.654449 347.750214,246.913818 
	C348.332916,246.888229 348.915619,246.862656 349.498322,246.837067 
	C349.648285,244.525497 349.950562,242.211639 349.916046,239.902832 
	C349.847412,235.309174 350.169464,231.112747 355.880310,229.945312 
	C356.397736,229.839539 356.654144,228.456772 357.084198,227.557358 
	C353.641296,227.867142 350.888824,228.114792 347.051910,228.460022 
	C347.051910,232.436798 347.051910,237.326172 347.052246,243.135727 
M647.959961,236.925125 
	C646.773315,231.422394 653.273254,231.316559 655.549988,227.460342 
	C651.710022,227.843475 648.852295,228.128601 645.102417,228.502747 
	C645.556091,234.050186 644.073792,240.470917 645.811279,246.741333 
	C646.523865,246.744690 647.236511,246.748047 647.949097,246.751404 
	C647.949097,243.771927 647.949097,240.792435 647.959961,236.925125 
M456.780060,222.936432 
	C456.373413,221.700958 455.966797,220.465500 455.560150,219.230026 
	C455.243164,219.343765 454.926178,219.457504 454.609192,219.571243 
	C454.609192,228.660034 454.609192,237.748825 454.609192,246.837631 
	C455.332825,246.858261 456.056427,246.878906 456.780060,246.899536 
	C456.780060,239.213867 456.780060,231.528183 456.780060,222.936432 
M714.092529,232.758972 
	C714.092346,245.207199 714.092346,245.207199 716.490112,246.810410 
	C716.490112,240.267929 716.490112,233.893906 716.490112,227.519882 
	C716.005005,227.453751 715.519897,227.387604 715.034851,227.321472 
	C714.720764,228.829681 714.406677,230.337875 714.092529,232.758972 
M661.222534,230.065140 
	C661.496155,235.653854 660.615540,241.381714 662.909119,246.790482 
	C664.054077,240.837112 664.093201,234.958008 663.991638,229.081314 
	C663.981812,228.513107 663.099915,227.959991 662.622742,227.399841 
	C662.163269,228.003204 661.703796,228.606567 661.222534,230.065140 
M509.908478,251.153900 
	C510.449493,249.430130 511.355652,247.712036 511.382507,245.980316 
	C511.396606,245.070023 509.872345,244.135895 509.042725,243.212524 
	C508.669708,243.884796 507.893677,244.626572 507.995453,245.216980 
	C508.377594,247.433517 509.046234,249.600677 509.908478,251.153900 
z"/>
<path fill="#8A5DD6" opacity="1.000000" stroke="none" 
	d="
M613.107422,157.996246 
	C613.107422,139.171829 613.120972,120.846474 613.101746,102.521164 
	C613.091370,92.669281 612.997253,92.582535 603.456116,89.765053 
	C602.682190,89.536507 601.930725,89.231689 601.168823,88.962318 
	C601.485046,88.343956 601.801208,87.725601 602.117432,87.107239 
	C606.778931,87.107239 611.440369,87.107468 616.101868,87.107193 
	C627.043945,87.106552 626.960693,87.137665 630.813232,97.415413 
	C638.904785,119.001892 647.088501,140.553818 655.259827,162.110291 
	C655.539917,162.849289 656.093262,163.484741 657.140991,165.166321 
	C659.342651,159.395584 661.268188,154.411026 663.148376,149.409439 
	C670.512878,129.818649 677.934753,110.248772 685.134827,90.597664 
	C686.120972,87.906128 687.342590,86.984024 690.113281,87.052856 
	C696.862122,87.220505 703.617859,87.107475 710.370850,87.107475 
	C710.492859,87.581314 710.614868,88.055153 710.736816,88.528992 
	C709.522217,89.014305 708.341980,89.782372 707.086914,89.934990 
	C702.186279,90.530930 699.658813,92.945114 699.659546,98.102760 
	C699.662842,122.584816 699.416138,147.067749 699.566833,171.548462 
	C699.614258,179.244736 700.408325,179.585968 707.974426,181.257919 
	C709.028931,181.490967 709.922302,182.453339 710.379517,183.973755 
	C698.707520,183.973755 687.035461,183.973755 675.363464,183.973755 
	C675.221802,183.574051 675.080200,183.174332 674.938599,182.774628 
	C676.147705,182.217819 677.306702,181.375885 678.574585,181.152786 
	C684.589844,180.094360 686.022461,178.932846 686.083679,172.704758 
	C686.289917,151.717789 686.251099,130.728409 686.303101,109.739944 
	C686.311340,106.418633 686.304260,103.097282 685.315186,99.482979 
	C674.589050,128.139511 663.862976,156.796051 653.136841,185.452576 
	C652.471985,185.375122 651.807068,185.297653 651.142212,185.220184 
	C640.116577,156.925385 629.090942,128.630585 618.065308,100.335777 
	C617.707458,100.361359 617.349548,100.386932 616.991638,100.412514 
	C616.893005,101.899834 616.709717,103.387070 616.708435,104.874474 
	C616.689880,126.198486 616.728943,147.522598 616.678711,168.846497 
	C616.659790,176.898788 618.034424,180.693024 626.572876,181.227859 
	C627.498840,181.285858 628.368042,182.251328 629.263550,182.795883 
	C629.109253,183.173813 628.954956,183.551758 628.800598,183.929688 
	C619.972412,183.929688 611.144165,183.929688 602.315918,183.929688 
	C602.136963,183.577423 601.958008,183.225159 601.779053,182.872894 
	C602.876343,182.278625 603.925842,181.299713 605.079224,181.156174 
	C610.278015,180.509125 612.700989,177.417755 612.928528,172.483597 
	C613.143188,167.827988 613.059692,163.158646 613.107422,157.996246 
z"/>
<path fill="#8759D6" opacity="1.000000" stroke="none" 
	d="
M109.002533,136.880432 
	C103.541588,136.880371 98.579895,136.880371 93.568550,136.880371 
	C93.568550,149.899780 93.512291,162.485199 93.604172,175.069550 
	C93.630402,178.661545 96.045074,180.320404 99.339218,180.891251 
	C100.937752,181.168259 102.545418,181.392517 105.264671,181.813309 
	C103.938629,183.063278 103.277008,184.233414 102.603477,184.240311 
	C91.509674,184.353912 80.414383,184.321045 69.319420,184.321045 
	C69.143143,183.840790 68.966866,183.360535 68.790596,182.880280 
	C69.885750,182.287491 70.921165,181.370392 72.085991,181.155807 
	C78.488640,179.976349 79.969376,178.645630 80.001663,171.927338 
	C80.118546,147.613983 80.115356,123.299362 79.994873,98.986023 
	C79.962570,92.468575 78.549324,91.236290 71.863411,89.903862 
	C70.816391,89.695206 69.850647,89.078751 68.847313,88.650856 
	C68.956123,88.242836 69.064926,87.834808 69.173729,87.426788 
	C80.788048,87.426788 92.402367,87.426788 104.016678,87.426788 
	C104.161057,87.744476 104.305428,88.062164 104.449806,88.379852 
	C103.280602,88.906738 102.144669,89.783569 100.936302,89.898438 
	C96.316177,90.337593 93.436996,92.317017 93.439468,97.332451 
	C93.445351,109.297981 93.441368,121.263519 93.441368,133.607346 
	C107.812454,133.607346 122.355408,133.607346 137.614990,133.607346 
	C137.614990,126.284241 137.645447,119.025604 137.604248,111.767372 
	C137.576874,106.942978 137.425476,102.119415 137.369339,97.295021 
	C137.315109,92.636086 134.884140,90.400200 130.348557,89.936157 
	C128.907700,89.788734 127.536522,88.960289 126.133453,88.443497 
	C126.262451,88.011589 126.391457,87.579674 126.520454,87.147766 
	C138.194824,87.147766 149.869202,87.147766 161.543564,87.147766 
	C161.686218,87.567993 161.828873,87.988220 161.971527,88.408447 
	C160.810852,88.914429 159.694275,89.669365 158.482010,89.884163 
	C152.580872,90.929810 150.967102,92.317039 150.935425,98.411850 
	C150.805679,123.387077 150.882645,148.363388 150.886292,173.339294 
	C150.886993,178.195099 153.419281,180.596100 158.160645,181.118210 
	C159.502075,181.265915 160.768311,182.096436 161.575882,183.675476 
	C149.869690,183.675476 138.163498,183.675476 126.457306,183.675476 
	C126.383072,183.181931 126.308830,182.688385 126.234589,182.194839 
	C127.610657,181.826431 128.967407,181.266235 130.366394,181.125336 
	C134.668762,180.692078 137.227112,178.490982 137.263031,174.115448 
	C137.362640,161.981110 137.297562,149.845413 137.297562,136.880493 
	C128.009064,136.880493 118.755424,136.880493 109.002533,136.880432 
z"/>
<path fill="#8556D5" opacity="1.000000" stroke="none" 
	d="
M521.868652,155.999985 
	C521.914429,161.828201 521.843994,167.160843 522.036987,172.483932 
	C522.253784,178.465408 523.769653,180.049500 529.513123,181.124313 
	C530.738281,181.353561 531.912109,181.856491 533.109619,182.233337 
	C533.016052,182.687912 532.922546,183.142502 532.828979,183.597076 
	C521.298584,183.597076 509.768158,183.597076 498.237762,183.597076 
	C498.123199,183.213104 498.008636,182.829117 497.894104,182.445145 
	C499.155579,181.991043 500.399811,181.209732 501.681671,181.142044 
	C506.152435,180.906021 508.278320,178.425507 508.749908,174.246918 
	C508.954590,172.433289 508.982452,170.592651 508.983643,168.764206 
	C508.998383,146.445755 509.000885,124.127281 508.989441,101.808830 
	C508.984772,92.691132 508.645782,92.307190 499.600891,89.746086 
	C498.959839,89.564583 498.479187,88.816582 497.014832,87.538544 
	C509.667389,87.538544 521.207214,87.538544 532.747009,87.538544 
	C532.877930,87.868523 533.008850,88.198509 533.139832,88.528488 
	C531.939270,89.013084 530.757446,89.854988 529.534912,89.918800 
	C524.890381,90.161255 522.220642,92.705994 522.133484,97.072952 
	C521.891724,109.183846 522.049622,121.302704 522.049622,133.704041 
	C536.743835,133.704041 551.152039,133.704041 566.339172,133.704041 
	C566.339172,128.050888 566.339172,122.471703 566.339111,116.892517 
	C566.339050,111.229622 566.382263,105.566322 566.328064,99.903946 
	C566.257935,92.583069 565.166077,91.333778 558.134216,89.915123 
	C557.161865,89.718964 556.274963,89.099564 555.559387,87.574402 
	C567.119324,87.574402 578.679199,87.574402 590.239136,87.574402 
	C590.376770,87.846451 590.514465,88.118500 590.652100,88.390541 
	C589.451477,88.908386 588.279968,89.780228 587.045166,89.881493 
	C582.241577,90.275436 579.694519,92.728806 579.689270,97.536301 
	C579.661804,122.824921 579.718445,148.113663 579.665283,173.402191 
	C579.654907,178.356766 582.118896,180.646484 586.819336,181.140015 
	C588.109436,181.275467 589.357300,181.814133 590.624512,182.167770 
	C590.557800,182.620163 590.491028,183.072540 590.424255,183.524933 
	C578.874084,183.524933 567.323914,183.524933 555.773682,183.524933 
	C555.635132,183.190521 555.496582,182.856125 555.358032,182.521713 
	C556.762512,182.045807 558.134583,181.391144 559.577881,181.129120 
	C563.201538,180.471237 566.022766,178.935471 566.053223,174.840561 
	C566.145935,162.397339 566.086792,149.952988 566.086792,137.190674 
	C551.418823,137.190674 537.012390,137.190674 521.868713,137.190674 
	C521.868713,143.313507 521.868713,149.406845 521.868652,155.999985 
z"/>
<path fill="#885AD6" opacity="1.000000" stroke="none" 
	d="
M236.660126,184.019363 
	C215.204193,184.019028 194.212250,184.019028 173.220306,184.019028 
	C173.123352,183.511688 173.026413,183.004349 172.929474,182.497009 
	C174.268616,182.020523 175.576004,181.280975 176.952621,181.114761 
	C181.953369,180.510880 184.175781,177.873489 184.157715,172.791443 
	C184.068802,147.799728 184.109039,122.807526 184.115219,97.815498 
	C184.116425,92.937355 181.530426,90.592781 176.858780,89.979538 
	C175.496384,89.800705 174.215759,88.998817 172.897644,88.482521 
	C173.053558,88.015457 173.209473,87.548386 173.365372,87.081322 
	C196.075104,87.081322 218.784836,87.081322 241.423431,87.081322 
	C241.423431,95.174385 241.423431,103.233727 241.423431,112.307884 
	C239.796631,111.362488 238.696503,111.066185 238.220718,110.353226 
	C237.712738,109.592010 237.793808,108.437469 237.618530,107.454483 
	C234.920090,92.321419 232.190262,89.997078 216.924332,90.034424 
	C212.599289,90.044998 208.266693,90.117500 203.952271,90.392433 
	C200.066162,90.640076 197.768005,92.856819 197.743164,96.823601 
	C197.667130,108.967056 197.715530,121.111305 197.715530,133.244781 
	C210.066422,136.269608 216.147430,132.419113 218.306580,120.253700 
	C218.451706,119.435974 218.498642,118.526138 218.906387,117.848885 
	C219.400162,117.028755 220.229614,116.410736 220.913818,115.705261 
	C221.366928,116.609550 222.207245,117.512093 222.211304,118.418381 
	C222.241089,125.074921 222.001175,131.733032 222.054550,138.388977 
	C222.090561,142.876480 222.567947,147.360306 222.609436,151.847992 
	C222.618423,152.822128 221.608643,153.805679 221.068085,154.784882 
	C220.418793,153.985626 219.760849,153.193069 219.130630,152.379028 
	C219.047180,152.271271 219.111633,152.053528 219.096405,151.887756 
	C217.720154,136.909332 211.169144,135.794724 197.869064,137.365082 
	C197.726990,138.174347 197.427338,139.096313 197.424179,140.019287 
	C197.388824,150.351501 197.274384,160.685852 197.436371,171.015625 
	C197.567627,179.385910 199.246124,180.903259 207.503082,180.974091 
	C211.835678,181.011261 216.170776,181.061874 220.501434,180.962433 
	C232.512192,180.686661 238.029846,175.831650 239.959457,163.942474 
	C240.252884,162.134674 240.325806,160.273254 240.812180,158.523193 
	C241.012787,157.801407 242.035690,157.308167 242.684570,156.710968 
	C243.127350,157.462433 243.580246,158.208282 244.002930,158.970886 
	C244.073578,159.098358 244.012863,159.298630 244.012863,159.465271 
	C244.012863,167.585709 244.012863,175.706131 244.012863,184.019699 
	C242.016556,184.019699 239.570328,184.019699 236.660126,184.019363 
z"/>
<path fill="#885AD6" opacity="1.000000" stroke="none" 
	d="
M915.000000,87.115417 
	C928.802429,87.115479 942.104797,87.115479 955.375244,87.115479 
	C955.375244,94.613098 955.415955,102.182770 955.300537,109.750069 
	C955.290955,110.377853 954.225586,110.989525 953.650757,111.608704 
	C953.102478,110.915428 952.247314,110.296005 952.059570,109.515953 
	C951.284363,106.295227 950.936584,102.960320 950.013855,99.788963 
	C948.434937,94.361778 945.010498,90.766083 939.021912,90.555382 
	C932.377808,90.321625 925.724182,90.111015 919.079712,90.213509 
	C914.106506,90.290237 911.591492,92.976448 911.642822,98.171791 
	C911.757812,109.813446 911.678772,121.457008 911.678772,133.090759 
	C923.278076,136.654327 930.352478,132.303802 932.289734,120.455269 
	C932.450500,119.472458 932.542542,118.425980 932.966064,117.554749 
	C933.320923,116.824799 934.113770,116.307816 934.712646,115.696518 
	C935.262024,116.370979 936.285156,117.041710 936.290466,117.720459 
	C936.387024,129.972061 936.360779,142.224655 935.360352,155.122528 
	C934.611084,154.110184 933.547180,153.198578 933.183594,152.062775 
	C932.583374,150.187546 932.553284,148.138290 932.075378,146.213898 
	C930.449768,139.667709 927.193298,137.077515 920.429626,136.902039 
	C917.638245,136.829605 914.843445,136.890030 911.930420,136.890030 
	C911.930420,150.202454 911.778259,162.958923 912.123535,175.701904 
	C912.166565,177.289993 914.810791,180.104187 916.307434,180.143356 
	C925.227295,180.376862 934.302917,180.798553 943.026672,179.351364 
	C946.500000,178.775177 949.829712,173.968582 952.063110,170.367416 
	C953.788940,167.584702 953.607849,163.654312 954.471130,160.284546 
	C954.823486,158.908905 955.694336,157.666092 956.329285,156.362839 
	C956.888611,156.529282 957.447876,156.695724 958.007202,156.862167 
	C958.007202,165.743057 958.007202,174.623947 958.007202,183.862808 
	C934.693298,183.862808 910.960754,183.862808 887.228271,183.862808 
	C887.118896,183.429123 887.009460,182.995453 886.900085,182.561768 
	C888.070679,182.080353 889.200928,181.371689 890.418640,181.155670 
	C896.756775,180.031281 898.022827,178.983124 898.113770,172.373581 
	C898.335938,156.218597 898.296997,140.059647 898.303894,123.902252 
	C898.307495,115.408730 898.290710,106.912636 898.085876,98.422455 
	C897.941406,92.432396 896.515259,91.093109 890.493469,89.961258 
	C889.243896,89.726387 888.101257,88.922104 886.909363,88.380234 
	C887.048157,87.958611 887.187012,87.536980 887.325867,87.115356 
	C896.383911,87.115356 905.441956,87.115356 915.000000,87.115417 
z"/>
<path fill="#895BD6" opacity="1.000000" stroke="none" 
	d="
M832.054504,184.019989 
	C827.170044,184.020004 822.775452,184.020004 818.380920,184.020004 
	C818.347229,183.336319 818.313538,182.652649 818.279846,181.968964 
	C819.561218,181.679214 820.828613,181.261703 822.126099,181.120636 
	C829.941895,180.270844 831.919434,178.412109 832.072266,170.356705 
	C832.321838,157.199020 832.271912,144.035278 832.307129,130.873993 
	C832.338379,119.209801 832.313538,107.545464 832.313538,95.881187 
	C832.313538,94.101494 832.313599,92.321800 832.313599,89.493858 
	C826.097839,90.163551 820.444397,90.281433 815.034912,91.490501 
	C809.368408,92.757011 807.096436,97.656326 805.873108,102.865738 
	C805.114502,106.095993 804.883545,109.448601 804.163269,112.690193 
	C803.889893,113.920647 802.909119,114.993919 802.250793,116.138832 
	C801.751953,115.981041 801.253113,115.823250 800.754272,115.665459 
	C800.754272,106.171066 800.754272,96.676674 800.754272,87.037880 
	C826.026428,87.037880 851.593445,87.037880 877.031738,87.037880 
	C877.031738,96.702797 877.031738,106.104179 877.031738,115.505562 
	C876.474854,115.728058 875.917969,115.950562 875.361084,116.173058 
	C874.669861,115.003433 873.636902,113.911072 873.351685,112.649651 
	C872.511169,108.931908 872.273376,105.060318 871.238403,101.407982 
	C869.457581,95.123657 865.587158,90.964020 858.565979,90.624962 
	C854.448486,90.426117 850.337097,90.102150 845.703918,89.800690 
	C845.580139,92.147469 845.408630,93.899429 845.407288,95.651512 
	C845.389587,119.646576 845.393799,143.641663 845.399597,167.636749 
	C845.399902,168.967865 845.387268,170.305695 845.507141,171.628952 
	C846.128967,178.492081 847.798340,180.147293 854.668518,181.118073 
	C856.217773,181.336975 857.709290,181.963852 859.227417,182.402939 
	C859.070374,182.941940 858.913330,183.480957 858.756287,184.019974 
	C850.018982,184.019974 841.281738,184.019974 832.054504,184.019989 
z"/>
<path fill="#8859D6" opacity="1.000000" stroke="none" 
	d="
M455.881195,163.949432 
	C455.885071,166.272217 455.845978,168.105637 455.900421,169.936295 
	C456.137787,177.922943 458.187622,180.093719 466.120880,181.178070 
	C467.390442,181.351608 468.565063,182.219788 469.783569,182.766846 
	C468.457703,183.221741 467.135101,184.060455 465.805481,184.071640 
	C453.682068,184.173630 441.557404,184.131531 429.433105,184.131531 
	C429.225800,183.681213 429.018494,183.230911 428.811188,182.780594 
	C430.029785,182.226593 431.203094,181.348724 432.474274,181.171066 
	C440.809143,180.006058 442.199829,179.062103 442.625427,170.639725 
	C443.137421,160.506561 442.947113,150.335541 442.972656,140.180695 
	C443.014130,123.707947 442.983826,107.235016 442.983826,89.576935 
	C436.951630,90.185036 431.170532,90.260239 425.638855,91.473038 
	C420.457611,92.609009 417.950836,97.071686 416.738831,101.963242 
	C415.822601,105.661018 415.471008,109.495628 414.694550,113.233284 
	C414.502350,114.158470 413.636169,114.943649 413.079803,115.793182 
	C412.457001,114.862923 411.309021,113.941383 411.293396,113.001060 
	C411.152985,104.539246 411.211365,96.074127 411.211365,87.260345 
	C436.462372,87.260345 461.971649,87.260345 487.613373,87.260345 
	C487.613373,96.159225 487.647461,104.923431 487.549164,113.686150 
	C487.541229,114.392807 486.623993,115.089256 486.129272,115.790451 
	C485.454620,115.050102 484.364899,114.401947 484.176483,113.553612 
	C483.313263,109.667130 482.948456,105.660423 481.946014,101.816521 
	C480.237793,95.266403 476.226868,91.031242 469.094055,90.548958 
	C464.968475,90.270004 460.837341,90.073372 455.881256,89.792854 
	C455.881256,114.665466 455.881256,139.062149 455.881195,163.949432 
z"/>
<path fill="#895BD6" opacity="1.000000" stroke="none" 
	d="
M316.018829,176.759491 
	C312.973785,167.277313 309.936188,158.174469 306.656555,149.159668 
	C306.370758,148.374100 304.497437,147.769760 303.353149,147.755554 
	C294.197723,147.641861 285.038452,147.600571 275.885559,147.789658 
	C274.556976,147.817093 272.513855,148.883591 272.065948,149.983994 
	C269.628143,155.973282 267.275299,162.034149 265.486328,168.241318 
	C263.174225,176.263626 265.463104,179.471069 273.676727,181.145706 
	C274.810699,181.376923 275.824280,182.198624 276.893616,182.746964 
	C276.754059,183.154465 276.614471,183.561981 276.474915,183.969482 
	C267.819122,183.969482 259.163330,183.969482 249.422638,183.969482 
	C250.528976,182.568497 251.180649,181.702682 251.874313,180.871964 
	C254.772644,177.400925 258.793945,174.390610 260.410553,170.403351 
	C271.322083,143.490341 281.721100,116.369583 292.307831,89.324615 
	C292.758789,88.172592 293.425079,87.104881 294.573273,84.859215 
	C295.925720,87.285652 296.927063,88.673820 297.526337,90.218033 
	C308.080872,117.415077 318.541382,144.648727 329.150116,171.824524 
	C330.770630,175.975632 332.661133,180.203705 337.817169,181.308105 
	C338.206665,181.391510 338.625641,181.894745 338.793030,182.300858 
	C338.960663,182.707474 338.829865,183.237106 338.829865,183.767700 
	C327.974670,183.767700 317.231354,183.767700 305.409546,183.767700 
	C309.615021,181.135178 312.788391,179.148712 316.018829,176.759491 
M293.103424,112.445839 
	C292.070648,109.962364 291.037872,107.478897 289.578064,103.968521 
	C284.172394,118.258209 279.217041,131.357529 274.199036,144.622406 
	C284.709961,144.622406 294.610901,144.622406 305.128815,144.622406 
	C301.092957,133.873825 297.209473,123.531044 293.103424,112.445839 
z"/>
<path fill="#8555D5" opacity="1.000000" stroke="none" 
	d="
M740.858215,131.688660 
	C746.821045,116.234146 752.638123,101.139542 758.455200,86.044937 
	C759.035034,86.010231 759.614929,85.975525 760.194763,85.940819 
	C761.371155,88.495178 762.690613,90.994278 763.701721,93.612457 
	C773.610107,119.268456 783.437439,144.955765 793.383545,170.597031 
	C794.394714,173.203873 795.671265,175.884125 797.483826,177.952652 
	C799.190308,179.900055 801.768433,181.083649 805.268311,183.507095 
	C793.074951,183.507095 782.399597,183.507095 771.724182,183.507095 
	C771.598999,183.157043 771.473755,182.807007 771.348572,182.456955 
	C772.820740,181.957367 774.260010,181.295532 775.771240,180.988266 
	C780.527954,180.021149 782.103943,177.822464 780.525024,173.191025 
	C777.904785,165.505066 775.081909,157.881119 772.047791,150.350555 
	C771.558655,149.136414 769.552368,147.811020 768.216187,147.777405 
	C759.227600,147.551147 750.226746,147.527588 741.239990,147.788162 
	C739.714722,147.832382 737.486084,149.222244 736.872925,150.575272 
	C734.547974,155.705139 732.549438,161.009064 730.805420,166.370422 
	C727.709534,175.887253 729.519409,178.898285 739.084717,181.189545 
	C740.004211,181.409805 740.791138,182.183441 741.344055,183.665314 
	C732.725403,183.665314 724.106689,183.665314 715.349670,183.665314 
	C715.349670,183.047775 715.182129,182.224548 715.373779,182.130096 
	C724.046326,177.856125 726.122986,169.161423 729.304443,161.270477 
	C733.214233,151.573059 736.919067,141.792953 740.858215,131.688660 
M739.530090,144.550049 
	C749.554199,144.550049 759.578308,144.550049 770.061401,144.550049 
	C764.899963,130.848206 759.936584,117.672203 754.535278,103.333717 
	C749.151367,117.680084 744.258362,130.718445 739.530090,144.550049 
z"/>
<path fill="#8758D5" opacity="1.000000" stroke="none" 
	d="
M349.500061,179.585358 
	C350.551208,177.006073 351.913971,174.694336 351.929230,172.373734 
	C352.090485,147.897644 352.105377,123.419807 351.997772,98.943176 
	C351.968140,92.205589 350.727051,91.134750 343.973022,89.911797 
	C342.900726,89.717628 341.898132,89.138397 340.863281,88.737190 
	C340.959564,88.319977 341.055817,87.902763 341.152069,87.485550 
	C352.712738,87.485550 364.273376,87.485550 375.834045,87.485550 
	C375.964691,87.827225 376.095337,88.168892 376.225983,88.510567 
	C375.018890,89.001793 373.841064,89.813354 372.599457,89.926735 
	C368.108734,90.336830 365.580750,92.517509 365.344086,97.129257 
	C365.267456,98.622360 365.028687,100.112000 365.027313,101.603371 
	C365.006897,124.084106 364.958710,146.565079 365.038269,169.045547 
	C365.075653,179.605438 366.613159,180.986404 377.294250,180.987503 
	C380.125153,180.987793 382.956085,180.988098 385.786987,180.987457 
	C400.568756,180.984100 406.101715,176.052231 408.069244,161.345291 
	C408.362091,159.156296 409.266174,157.049088 409.887512,154.904037 
	C410.486755,155.054123 411.085999,155.204224 411.685242,155.354309 
	C411.685242,164.713242 411.685242,174.072189 411.685242,183.795410 
	C388.326630,183.795410 364.804688,183.795410 341.282745,183.795410 
	C341.127472,183.325668 340.972229,182.855942 340.816986,182.386200 
	C343.606659,181.540405 346.396332,180.694611 349.500061,179.585358 
z"/>
<path fill="#B45DAE" opacity="1.000000" stroke="none" 
	d="
M375.529358,224.460297 
	C376.083862,223.020935 376.636627,222.028122 377.189392,221.035309 
	C377.710175,221.907501 378.609283,222.750214 378.679993,223.657486 
	C378.883270,226.266068 378.751709,228.900757 378.751709,231.879303 
	C383.975159,231.879303 388.701263,231.879303 393.753815,231.879303 
	C394.163971,228.168198 394.571442,224.481491 394.978882,220.794800 
	C395.626587,220.879852 396.274292,220.964920 396.921997,221.049973 
	C396.921997,229.595474 396.921997,238.140961 396.921997,246.686447 
	C396.373535,246.810867 395.825104,246.935287 395.276642,247.059708 
	C394.930847,245.349411 394.423798,243.652466 394.280579,241.925385 
	C394.106537,239.826538 394.239258,237.702271 394.239258,235.333435 
	C388.947357,235.333435 384.200226,235.333435 378.758423,235.333435 
	C378.758423,238.222107 378.900116,240.995163 378.687134,243.740707 
	C378.604523,244.805649 377.720123,245.808411 377.200989,246.839508 
	C376.643951,245.848907 375.628204,244.869064 375.604645,243.865936 
	C375.456299,237.549118 375.528381,231.227127 375.529358,224.460297 
z"/>
<path fill="#B25AAC" opacity="1.000000" stroke="none" 
	d="
M537.132507,246.245758 
	C530.860474,243.299805 528.081970,238.737823 528.900269,232.137604 
	C529.588135,226.589035 532.680908,222.894257 537.957581,221.477814 
	C543.396179,220.017883 548.526917,220.840515 552.532654,225.337021 
	C556.239380,229.497772 556.850891,235.754745 554.032471,240.649521 
	C550.849304,246.177765 545.372314,248.071976 537.132507,246.245758 
M533.290161,228.115036 
	C530.673035,234.191360 531.366821,238.933426 535.337036,242.105545 
	C538.994080,245.027451 545.162781,245.096191 548.774658,242.255264 
	C553.459229,238.570602 554.193420,231.749115 550.397583,227.175842 
	C546.428894,222.394302 539.020813,222.524979 533.290161,228.115036 
z"/>
<path fill="#B35BAD" opacity="1.000000" stroke="none" 
	d="
M500.455505,240.040588 
	C500.317719,242.628571 500.180450,244.768906 500.043213,246.909241 
	C499.428925,246.937119 498.814667,246.964981 498.200409,246.992844 
	C497.981476,245.103912 497.689087,243.219833 497.563782,241.324722 
	C497.432312,239.335800 497.539734,237.330856 497.402008,235.342667 
	C497.176147,232.082565 495.593323,229.975922 492.103485,230.000244 
	C488.738312,230.023682 486.175751,231.451660 485.794861,235.063995 
	C485.386810,238.934097 485.353271,242.843674 485.156281,246.736023 
	C484.622131,246.851898 484.087982,246.967789 483.553864,247.083664 
	C483.119568,245.690491 482.353271,244.309631 482.301117,242.902313 
	C481.596497,223.887726 481.863770,221.251648 485.182983,218.861572 
	C485.348511,222.351013 485.491089,225.356918 485.649536,228.697250 
	C486.491882,228.600937 487.113068,228.646500 487.646240,228.451492 
	C495.761017,225.483551 500.167511,228.446030 500.451324,237.096115 
	C500.478577,237.927551 500.455658,238.760635 500.455505,240.040588 
z"/>
<path fill="#B258AC" opacity="1.000000" stroke="none" 
	d="
M625.925415,238.932999 
	C624.180664,238.995972 622.886902,239.058746 621.308411,239.135345 
	C621.106567,241.843277 620.921448,244.327728 620.698853,247.314743 
	C617.774353,244.734756 617.075500,233.771759 618.475769,221.304230 
	C622.660950,221.304230 626.952881,220.881348 631.121704,221.417130 
	C635.762207,222.013535 638.770142,225.787186 638.506897,230.070587 
	C638.234070,234.511841 635.842590,237.469971 631.304260,238.323441 
	C629.680847,238.628754 628.020142,238.735428 625.925415,238.932999 
M628.125122,236.066833 
	C633.702332,235.324371 635.973083,233.022644 635.307251,228.786819 
	C634.576355,224.137497 630.515320,222.793045 621.421265,224.279388 
	C621.421265,228.113922 621.421265,231.973953 621.421265,236.069061 
	C623.599548,236.069061 625.416077,236.069061 628.125122,236.066833 
z"/>
<path fill="#B158AB" opacity="1.000000" stroke="none" 
	d="
M406.339813,231.654205 
	C409.806915,227.469009 413.735565,226.131226 418.496918,228.272476 
	C422.442657,230.046906 424.030090,233.212448 423.767456,237.917068 
	C418.562744,237.917068 413.486847,237.917068 408.340607,237.917068 
	C409.408905,244.375626 412.244141,245.342087 421.710449,242.911530 
	C420.358978,246.682816 416.072479,248.151901 411.345337,246.463913 
	C405.812225,244.488129 403.829926,238.985947 406.339813,231.654205 
M420.544983,235.684616 
	C420.858704,231.519241 418.026276,230.307877 414.764771,230.004257 
	C410.902191,229.644714 408.603424,231.544983 408.157837,235.900604 
	C412.180420,235.900604 415.954102,235.900604 420.544983,235.684616 
z"/>
<path fill="#B35BAD" opacity="1.000000" stroke="none" 
	d="
M313.175476,234.851807 
	C313.830444,241.560028 311.085480,245.910019 305.872467,246.925674 
	C300.768951,247.919968 295.305481,244.762207 294.041443,240.087631 
	C292.675201,235.035126 295.384979,229.546494 300.089050,227.838135 
	C305.607849,225.833939 310.411346,228.286545 313.175476,234.851807 
M303.491058,229.945389 
	C298.267731,230.890732 295.731781,234.571777 296.998688,239.369370 
	C298.071930,243.433609 301.915131,245.433487 305.959229,244.032120 
	C309.743042,242.720963 311.935333,237.991516 309.836945,234.192581 
	C308.809174,232.331848 306.197388,231.346054 303.491058,229.945389 
z"/>
<path fill="#B45DAE" opacity="1.000000" stroke="none" 
	d="
M688.661438,243.572601 
	C683.669312,247.779785 678.315247,248.124557 674.546692,244.751038 
	C670.538635,241.163116 669.941101,235.962738 672.997681,231.270020 
	C675.520813,227.396347 681.211121,226.116913 685.858215,228.378357 
	C691.178284,230.967316 692.449707,237.151703 688.661438,243.572601 
M683.036560,244.099915 
	C687.892944,241.697388 689.356445,237.996948 687.142029,233.719620 
	C685.191284,229.951614 680.601013,228.292923 677.583374,231.057220 
	C675.704956,232.777954 674.245117,236.148697 674.421509,238.650238 
	C674.712708,242.778946 677.840515,244.857574 683.036560,244.099915 
z"/>
<path fill="#B55FAF" opacity="1.000000" stroke="none" 
	d="
M743.898804,239.201324 
	C742.176880,235.236328 740.606262,231.620987 739.035645,228.005646 
	C739.506958,227.723526 739.978210,227.441422 740.449524,227.159302 
	C744.935791,230.918564 745.148682,237.464783 748.763733,242.303879 
	C752.819885,237.946182 752.700562,230.941223 757.363525,227.181198 
	C757.834778,227.451584 758.306030,227.721985 758.777283,227.992371 
	C755.195068,235.722000 751.965332,243.643784 747.896179,251.107910 
	C745.523560,255.460068 741.361816,255.303940 738.162598,251.168335 
	C739.240295,251.168335 739.966553,251.060699 740.650146,251.185760 
	C745.140381,252.007156 747.726990,249.334213 746.398987,245.047653 
	C745.812561,243.154572 744.844788,241.379593 743.898804,239.201324 
z"/>
<path fill="#B158AB" opacity="1.000000" stroke="none" 
	d="
M439.502991,230.198944 
	C436.093658,230.394913 433.079010,230.718002 430.064392,231.041092 
	C432.128418,227.661423 435.411255,227.065247 438.869629,227.454224 
	C442.408936,227.852295 444.708069,230.033752 444.906738,233.652420 
	C445.142059,237.938446 444.962036,242.247299 444.962036,246.164352 
	C442.355164,246.439240 440.200195,246.780350 438.035645,246.859558 
	C436.230408,246.925613 433.996399,247.300583 432.706451,246.426193 
	C431.034088,245.292587 428.949677,242.897675 429.162201,241.333817 
	C429.417877,239.452744 431.600159,237.077759 433.494507,236.361816 
	C435.997467,235.415863 439.030579,235.872589 442.973541,235.667114 
	C441.708557,233.470520 440.803162,231.898285 439.502991,230.198944 
M440.754852,243.041611 
	C441.290497,241.542114 441.826141,240.042618 442.535797,238.056030 
	C439.373749,238.056030 437.149109,237.703690 435.122528,238.185089 
	C433.860016,238.484985 431.854462,240.288345 432.017853,240.988831 
	C432.351440,242.418991 433.730011,244.275650 435.038574,244.631607 
	C436.538177,245.039551 438.428864,244.010025 440.754852,243.041611 
z"/>
<path fill="#B661B0" opacity="1.000000" stroke="none" 
	d="
M580.771545,244.349701 
	C580.563416,245.369827 580.392395,246.467621 580.150330,246.483521 
	C576.579773,246.717667 572.987427,247.048264 569.425476,246.865326 
	C565.831482,246.680756 563.453430,244.349350 563.149170,240.864868 
	C562.764465,236.458435 563.056274,231.992950 563.056274,227.552933 
	C563.503906,227.422592 563.951538,227.292252 564.399109,227.161926 
	C564.856079,228.077560 565.643799,228.970734 565.707825,229.913055 
	C565.899231,232.732208 565.714417,235.575104 565.851501,238.400238 
	C565.999084,241.441544 566.862915,244.123749 570.595581,244.240067 
	C574.073303,244.348404 576.935547,243.366653 577.341736,239.282242 
	C577.730591,235.371567 577.995178,231.448547 578.327148,227.374786 
	C580.780151,228.950699 580.780151,228.950699 580.771545,244.349701 
z"/>
<path fill="#B45DAE" opacity="1.000000" stroke="none" 
	d="
M338.070282,238.915024 
	C338.070312,241.808624 338.070312,244.225555 338.070312,245.892197 
	C335.306091,246.238861 333.302277,246.269867 331.421783,246.767166 
	C325.732361,248.271729 320.808838,245.237747 320.383881,239.410339 
	C320.094788,235.446350 320.485229,231.432816 320.571838,227.441437 
	C321.405182,227.429764 322.238525,227.418076 323.071869,227.406387 
	C323.071869,230.386536 323.017303,233.367920 323.085510,236.346512 
	C323.172821,240.159912 323.510590,243.918137 328.586914,244.208679 
	C332.977020,244.459946 334.997894,241.989334 335.239166,236.332428 
	C335.366882,233.338531 335.535248,230.346359 335.685211,227.353394 
	C336.480225,227.386246 337.275238,227.419098 338.070251,227.451950 
	C338.070251,231.114090 338.070251,234.776215 338.070282,238.915024 
z"/>
<path fill="#B45DAE" opacity="1.000000" stroke="none" 
	d="
M275.448486,231.698730 
	C273.255127,228.135895 271.291290,224.866058 269.327484,221.596222 
	C276.079437,223.170151 276.172913,230.630447 281.113586,234.370941 
	C284.191620,229.704132 287.254517,225.060272 290.317413,220.416412 
	C290.837006,220.717209 291.356598,221.018021 291.876190,221.318817 
	C288.779633,229.946030 279.847107,236.306091 280.912476,246.832458 
	C279.167664,241.885544 277.422882,236.938644 275.448486,231.698730 
z"/>
<path fill="#B55FAF" opacity="1.000000" stroke="none" 
	d="
M726.214966,232.388214 
	C725.183716,230.873337 724.163208,229.806183 722.865356,228.448975 
	C723.885498,227.784180 725.465210,227.339172 725.785461,226.443695 
	C727.087952,222.801788 727.866089,220.100021 729.993042,226.147797 
	C730.373840,227.230667 733.247559,227.436798 735.087402,229.045425 
	C733.427979,229.543137 731.768555,230.040848 730.093445,230.543274 
	C727.987732,241.497864 728.869141,243.706589 736.135437,246.048950 
	C734.354492,246.353394 732.317383,247.336014 730.859436,246.785294 
	C729.155762,246.141724 727.101807,244.358261 726.722412,242.717331 
	C725.991211,239.554306 726.330383,236.143829 726.214966,232.388214 
z"/>
<path fill="#B763B1" opacity="1.000000" stroke="none" 
	d="
M467.575317,245.316925 
	C466.886871,241.756409 466.596893,238.487396 465.989258,235.278534 
	C465.561890,233.021866 464.702454,230.847031 463.773560,227.765015 
	C464.328735,227.069077 465.808258,225.214417 467.726318,222.810043 
	C468.420532,224.267776 469.039062,225.566650 469.663574,226.867218 
	C471.367615,227.163269 473.065704,227.457611 474.763794,227.751938 
	C474.834839,228.173523 474.905884,228.595108 474.976929,229.016693 
	C473.175323,229.502457 471.373749,229.988220 469.511505,230.490341 
	C467.527191,241.420013 468.309540,243.398712 475.307739,245.005829 
	C472.597809,247.700882 472.380981,247.719116 467.575317,245.316925 
z"/>
<path fill="#B054A9" opacity="1.000000" stroke="none" 
	d="
M589.587524,233.337738 
	C589.680908,231.129745 589.773804,229.370270 589.840027,228.115417 
	C593.564087,228.115417 596.600647,228.115417 599.637146,228.115417 
	C599.911621,228.484726 600.186035,228.854019 600.460449,229.223328 
	C588.581787,230.977905 594.177368,240.897980 591.679138,247.035934 
	C591.037781,247.005051 590.396362,246.974182 589.754944,246.943298 
	C589.698975,242.557617 589.643005,238.171936 589.587524,233.337738 
z"/>
<path fill="#B054A9" opacity="1.000000" stroke="none" 
	d="
M700.902100,244.519821 
	C700.291809,245.661896 699.694153,246.365509 698.251160,248.064224 
	C698.251160,240.363297 698.251160,234.116364 698.251160,228.200638 
	C701.426636,228.200638 704.520630,228.200638 707.926514,228.200638 
	C705.722961,230.177155 702.568359,231.771439 701.546814,234.246231 
	C700.359863,237.121613 701.043213,240.769028 700.902100,244.519821 
z"/>
<path fill="#B45DAE" opacity="1.000000" stroke="none" 
	d="
M347.052063,242.675629 
	C347.051910,237.326172 347.051910,232.436798 347.051910,228.460022 
	C350.888824,228.114792 353.641296,227.867142 357.084198,227.557358 
	C356.654144,228.456772 356.397736,229.839539 355.880310,229.945312 
	C350.169464,231.112747 349.847412,235.309174 349.916046,239.902832 
	C349.950562,242.211639 349.648285,244.525497 349.498322,246.837067 
	C348.915619,246.862656 348.332916,246.888229 347.750214,246.913818 
	C347.517578,245.654449 347.284912,244.395081 347.052063,242.675629 
z"/>
<path fill="#B45DAE" opacity="1.000000" stroke="none" 
	d="
M647.954529,237.369049 
	C647.949097,240.792435 647.949097,243.771927 647.949097,246.751404 
	C647.236511,246.748047 646.523865,246.744690 645.811279,246.741333 
	C644.073792,240.470917 645.556091,234.050186 645.102417,228.502747 
	C648.852295,228.128601 651.710022,227.843475 655.549988,227.460342 
	C653.273254,231.316559 646.773315,231.422394 647.954529,237.369049 
z"/>
<path fill="#B662B0" opacity="1.000000" stroke="none" 
	d="
M456.780060,223.389465 
	C456.780060,231.528183 456.780060,239.213867 456.780060,246.899536 
	C456.056427,246.878906 455.332825,246.858261 454.609192,246.837631 
	C454.609192,237.748825 454.609192,228.660034 454.609192,219.571243 
	C454.926178,219.457504 455.243164,219.343765 455.560150,219.230026 
	C455.966797,220.465500 456.373413,221.700958 456.780060,223.389465 
z"/>
<path fill="#AE50A8" opacity="1.000000" stroke="none" 
	d="
M714.092529,232.302521 
	C714.406677,230.337875 714.720764,228.829681 715.034851,227.321472 
	C715.519897,227.387604 716.005005,227.453751 716.490112,227.519882 
	C716.490112,233.893906 716.490112,240.267929 716.490112,246.810410 
	C714.092346,245.207199 714.092346,245.207199 714.092529,232.302521 
z"/>
<path fill="#B662B0" opacity="1.000000" stroke="none" 
	d="
M661.233398,229.637543 
	C661.703796,228.606567 662.163269,228.003204 662.622803,227.399841 
	C663.099915,227.959991 663.981812,228.513107 663.991638,229.081314 
	C664.093201,234.958008 664.054077,240.837112 662.909119,246.790482 
	C660.615540,241.381714 661.496155,235.653854 661.233398,229.637543 
z"/>
<path fill="#B662B0" opacity="1.000000" stroke="none" 
	d="
M509.757996,251.470123 
	C509.046234,249.600677 508.377594,247.433517 507.995453,245.216980 
	C507.893677,244.626572 508.669708,243.884796 509.042725,243.212524 
	C509.872345,244.135895 511.396606,245.070023 511.382507,245.980316 
	C511.355652,247.712036 510.449493,249.430130 509.757996,251.470123 
z"/>
<path fill="#FAF9FD" opacity="1.000000" stroke="none" 
	d="
M293.214691,112.817047 
	C297.209473,123.531044 301.092957,133.873825 305.128815,144.622406 
	C294.610901,144.622406 284.709961,144.622406 274.199036,144.622406 
	C279.217041,131.357529 284.172394,118.258209 289.578064,103.968521 
	C291.037872,107.478897 292.070648,109.962364 293.214691,112.817047 
z"/>
<path fill="#FAF9FD" opacity="1.000000" stroke="none" 
	d="
M739.447754,144.153442 
	C744.258362,130.718445 749.151367,117.680084 754.535278,103.333717 
	C759.936584,117.672203 764.899963,130.848206 770.061401,144.550049 
	C759.578308,144.550049 749.554199,144.550049 739.447754,144.153442 
z"/>
<path fill="#FEFDFE" opacity="1.000000" stroke="none" 
	d="
M533.530029,227.792114 
	C539.020813,222.524979 546.428894,222.394302 550.397583,227.175842 
	C554.193420,231.749115 553.459229,238.570602 548.774658,242.255264 
	C545.162781,245.096191 538.994080,245.027451 535.337036,242.105545 
	C531.366821,238.933426 530.673035,234.191360 533.530029,227.792114 
z"/>
<path fill="#FEFEFE" opacity="1.000000" stroke="none" 
	d="
M627.678833,236.067947 
	C625.416077,236.069061 623.599548,236.069061 621.421265,236.069061 
	C621.421265,231.973953 621.421265,228.113922 621.421265,224.279388 
	C630.515320,222.793045 634.576355,224.137497 635.307251,228.786819 
	C635.973083,233.022644 633.702332,235.324371 627.678833,236.067947 
z"/>
<path fill="#FEFEFE" opacity="1.000000" stroke="none" 
	d="
M420.136383,235.792603 
	C415.954102,235.900604 412.180420,235.900604 408.157837,235.900604 
	C408.603424,231.544983 410.902191,229.644714 414.764771,230.004257 
	C418.026276,230.307877 420.858704,231.519241 420.136383,235.792603 
z"/>
<path fill="#FEFDFE" opacity="1.000000" stroke="none" 
	d="
M303.896790,229.954834 
	C306.197388,231.346054 308.809174,232.331848 309.836945,234.192581 
	C311.935333,237.991516 309.743042,242.720963 305.959229,244.032120 
	C301.915131,245.433487 298.071930,243.433609 296.998688,239.369370 
	C295.731781,234.571777 298.267731,230.890732 303.896790,229.954834 
z"/>
<path fill="#FEFCFE" opacity="1.000000" stroke="none" 
	d="
M682.632690,244.193756 
	C677.840515,244.857574 674.712708,242.778946 674.421509,238.650238 
	C674.245117,236.148697 675.704956,232.777954 677.583374,231.057220 
	C680.601013,228.292923 685.191284,229.951614 687.142029,233.719620 
	C689.356445,237.996948 687.892944,241.697388 682.632690,244.193756 
z"/>
<path fill="#FEFCFE" opacity="1.000000" stroke="none" 
	d="
M440.452240,243.323303 
	C438.428864,244.010025 436.538177,245.039551 435.038574,244.631607 
	C433.730011,244.275650 432.351440,242.418991 432.017853,240.988831 
	C431.854462,240.288345 433.860016,238.484985 435.122528,238.185089 
	C437.149109,237.703690 439.373749,238.056030 442.535797,238.056030 
	C441.826141,240.042618 441.290497,241.542114 440.452240,243.323303 
z"/>
</svg>